<?xml version="1.0" standalone="no"?>
<!DOCTYPE svg PUBLIC "-//W3C//DTD SVG 20010904//EN"
 "http://www.w3.org/TR/2001/REC-SVG-20010904/DTD/svg10.dtd">
<svg version="1.0" xmlns="http://www.w3.org/2000/svg"
 width="877.000000pt" height="424.000000pt" viewBox="0 0 877.000000 424.000000"
 preserveAspectRatio="xMidYMid meet">

<g transform="translate(0.000000,424.000000) scale(0.100000,-0.100000)"
fill="#000000" stroke="none">
<path d="M97 4043 c-4 -3 -7 -876 -7 -1940 l0 -1933 4280 0 4280 0 0 1940 0
1940 -4273 0 c-2351 0 -4277 -3 -4280 -7z m8293 -1933 l0 -1680 -4020 0 -4020
0 0 1680 0 1680 4020 0 4020 0 0 -1680z"/>
<path d="M1129 3427 c-100 -28 -184 -100 -231 -196 -18 -37 -23 -63 -23 -136
0 -82 3 -96 33 -157 70 -142 213 -214 369 -187 122 21 234 121 269 238 23 78
15 183 -20 254 -69 141 -250 225 -397 184z"/>
<path d="M2092 3425 c-117 -33 -215 -132 -242 -246 -17 -70 -8 -176 19 -232
130 -268 504 -267 629 1 23 48 27 71 27 142 0 99 -26 168 -90 239 -79 87 -226
129 -343 96z"/>
<path d="M3063 3426 c-167 -41 -282 -220 -252 -391 26 -148 134 -256 284 -285
123 -24 266 37 340 145 36 51 65 139 65 197 1 150 -119 299 -267 334 -70 16
-101 16 -170 0z"/>
<path d="M5255 2986 c-22 -9 -54 -31 -72 -50 -56 -60 -65 -111 -70 -396 -6
-296 -9 -287 81 -276 65 9 66 11 66 144 l0 93 98 -3 97 -3 3 -105 c2 -84 6
-107 19 -117 19 -15 101 -17 121 -4 17 11 26 431 11 534 -11 79 -50 147 -102
174 -44 23 -198 28 -252 9z m149 -140 c41 -17 59 -58 60 -139 l1 -62 -60 -3
c-33 -2 -80 0 -104 3 l-44 7 6 67 c6 78 21 115 51 129 29 15 51 14 90 -2z"/>
<path d="M4085 2976 c-78 -35 -112 -103 -124 -245 -13 -150 1 -301 36 -370 34
-68 68 -89 164 -103 127 -17 218 22 264 113 21 41 27 69 31 153 7 136 6 136
-129 136 -56 0 -108 -4 -115 -9 -9 -5 -12 -26 -10 -67 l3 -59 48 -5 c26 -3 47
-8 47 -12 0 -5 0 -19 0 -32 0 -12 -11 -35 -25 -50 -20 -21 -33 -26 -73 -26
-35 0 -54 5 -65 18 -26 29 -40 126 -35 247 7 150 25 185 98 185 50 0 78 -20
96 -66 l17 -44 58 0 c75 0 90 14 78 71 -18 79 -62 137 -126 165 -42 18 -197
18 -238 0z"/>
<path d="M4588 2980 c-17 -10 -18 -38 -18 -360 0 -337 1 -349 20 -355 10 -3
105 -5 211 -3 190 3 191 3 200 26 13 33 11 96 -3 110 -8 8 -55 12 -145 12
l-133 0 0 80 0 80 129 0 c150 0 154 2 149 82 l-3 53 -137 3 -138 3 0 64 0 64
138 3 137 3 3 68 3 67 -133 0 c-73 0 -162 3 -198 5 -39 4 -72 1 -82 -5z"/>
<path d="M5747 2979 c-16 -13 -17 -40 -15 -364 l3 -350 47 -3 c86 -6 88 -1 88
153 0 174 11 178 81 28 70 -150 105 -183 194 -183 53 0 85 25 85 68 0 40 -14
55 -62 67 -40 9 -45 15 -81 84 l-38 74 51 30 c29 17 63 47 78 70 24 36 27 50
27 121 0 106 -19 140 -97 180 -53 26 -68 28 -200 33 -111 4 -147 2 -161 -8z
m289 -163 c27 -31 31 -73 10 -102 -12 -16 -27 -19 -93 -19 l-78 0 -3 64 c-4
93 -3 94 74 89 58 -4 70 -8 90 -32z"/>
<path d="M1134 2441 c-100 -26 -190 -99 -233 -191 -22 -47 -26 -68 -26 -150 0
-84 3 -101 28 -148 136 -259 493 -261 619 -4 30 60 33 75 33 157 0 82 -3 97
-33 158 -36 72 -97 128 -177 162 -46 19 -165 28 -211 16z"/>
<path d="M2083 2436 c-151 -49 -242 -175 -243 -333 0 -104 27 -170 100 -243
73 -73 143 -102 247 -102 306 -1 458 386 236 596 -85 80 -236 116 -340 82z"/>
<path d="M3053 2436 c-245 -80 -328 -375 -158 -563 136 -152 369 -155 506 -5
66 71 94 142 94 237 -1 135 -65 240 -186 305 -49 26 -75 33 -137 36 -49 3 -92
-1 -119 -10z"/>
<path d="M5335 1951 c-45 -11 -70 -27 -99 -61 -49 -59 -58 -113 -63 -387 -6
-294 -8 -288 74 -281 29 3 56 8 60 12 5 4 10 57 11 117 l4 110 96 -3 97 -3 3
-104 c1 -58 8 -111 14 -118 12 -15 105 -18 126 -4 17 10 26 417 12 529 -11 82
-46 144 -102 176 -34 21 -180 31 -233 17z m129 -145 c41 -17 59 -58 60 -139
l1 -62 -100 0 -100 0 1 66 c1 127 48 173 138 135z"/>
<path d="M3988 1938 c-16 -12 -18 -44 -19 -357 0 -206 3 -347 9 -353 5 -5 36
-8 68 -6 l59 3 3 138 3 137 94 0 95 0 0 -127 c0 -71 4 -134 9 -141 5 -9 27
-12 72 -10 l64 3 3 357 2 357 -46 7 c-27 4 -55 2 -69 -4 -24 -11 -24 -15 -27
-149 l-3 -138 -94 0 -94 0 -3 139 c-2 76 -6 141 -8 144 -13 12 -102 13 -118 0z"/>
<path d="M4682 1929 c-80 -40 -109 -110 -118 -289 -7 -130 6 -251 35 -315 27
-62 76 -95 160 -108 133 -20 229 22 278 122 27 55 28 60 28 236 0 201 -8 240
-57 299 -46 57 -96 76 -198 76 -67 0 -94 -5 -128 -21z m193 -141 c34 -31 48
-111 41 -242 -7 -155 -28 -190 -111 -184 -75 5 -89 31 -94 174 -4 155 5 220
34 250 32 32 94 33 130 2z"/>
<path d="M5820 1943 c-8 -3 -18 -11 -22 -17 -4 -6 -8 -165 -8 -352 0 -303 2
-343 16 -348 22 -8 97 -7 111 2 8 5 13 52 15 142 3 114 6 135 19 138 12 2 26
-21 54 -85 67 -159 109 -203 195 -203 62 0 90 21 90 69 0 44 -14 61 -51 61
-33 0 -64 34 -99 109 -24 52 -24 54 -6 65 52 30 101 75 117 106 22 40 26 137
8 191 -14 43 -67 92 -116 108 -41 13 -299 25 -323 14z m275 -163 c18 -17 25
-34 25 -62 0 -54 -28 -70 -116 -66 l-69 3 0 70 c0 39 1 74 3 79 3 4 33 6 68 4
49 -3 69 -9 89 -28z"/>
<path d="M6403 1938 c-19 -22 -29 -655 -11 -688 13 -24 17 -25 138 -28 69 -2
145 2 170 8 66 16 118 56 148 114 27 50 27 54 27 246 l0 195 -30 53 c-23 42
-40 59 -80 79 -45 24 -64 27 -200 31 -122 4 -153 2 -162 -10z m294 -163 c29
-32 36 -91 31 -231 -4 -106 -6 -117 -29 -140 -21 -21 -35 -25 -94 -27 l-70 -2
-3 205 c-1 112 0 211 3 219 4 11 20 13 73 8 55 -5 71 -11 89 -32z"/>
<path d="M7020 1942 c-8 -3 -17 -8 -20 -13 -3 -4 -7 -161 -9 -349 -2 -280 -1
-344 10 -351 8 -5 103 -9 212 -9 l197 0 10 26 c14 35 12 98 -2 112 -8 8 -55
12 -145 12 l-133 0 0 80 0 80 135 0 c153 0 150 -2 143 91 l-3 44 -137 3 -138
3 0 64 0 65 135 0 c100 0 137 3 139 13 10 29 14 103 8 113 -7 12 -372 26 -402
16z"/>
<path d="M7562 1940 l-22 -9 2 -353 3 -353 53 -3 c80 -5 82 -1 82 154 0 171
12 176 77 37 72 -156 109 -193 195 -193 61 0 88 21 88 69 0 44 -14 61 -52 61
-36 0 -63 28 -98 103 l-29 61 42 24 c92 52 123 110 115 217 -7 87 -30 123
-100 158 -52 27 -67 29 -195 33 -79 2 -148 0 -161 -6z m284 -164 c30 -34 31
-79 4 -106 -18 -18 -31 -20 -93 -18 l-72 3 -3 65 c-3 93 -3 93 74 88 58 -4 70
-8 90 -32z"/>
<path d="M1157 1469 c-108 -17 -199 -86 -249 -187 -30 -61 -33 -75 -33 -157 0
-72 5 -99 22 -135 72 -146 220 -228 368 -203 80 14 124 35 185 90 157 141 143
403 -28 528 -76 56 -173 80 -265 64z"/>
<path d="M2110 1466 c-150 -32 -258 -157 -268 -311 -6 -89 14 -162 62 -230
149 -209 473 -182 586 49 102 206 -14 444 -237 491 -79 17 -72 17 -143 1z"/>
<path d="M3080 1467 c-188 -41 -305 -222 -265 -410 28 -134 131 -239 264 -267
248 -52 469 175 407 420 -46 182 -227 296 -406 257z"/>
</g>
</svg>
