<?xml version="1.0" standalone="no"?>
<!DOCTYPE svg PUBLIC "-//W3C//DTD SVG 20010904//EN"
 "http://www.w3.org/TR/2001/REC-SVG-20010904/DTD/svg10.dtd">
<svg version="1.0" xmlns="http://www.w3.org/2000/svg"
 width="200.000000pt" height="200.000000pt" viewBox="0 0 200.000000 200.000000"
 preserveAspectRatio="xMidYMid meet">
<metadata>
Created by potrace 1.14, written by Peter Selinger 2001-2017
</metadata>
<g transform="translate(0.000000,200.000000) scale(0.100000,-0.100000)"
fill="#000000" stroke="none">
<path d="M561 1943 c-60 -30 -61 -38 -61 -493 0 -267 -3 -410 -10 -410 -6 0
-10 -40 -10 -100 0 -60 4 -100 10 -100 6 0 10 -123 10 -349 0 -222 4 -359 11
-379 6 -17 23 -39 37 -49 25 -17 58 -18 448 -18 463 0 460 0 489 60 13 28 15
88 15 384 0 227 4 351 10 351 6 0 10 40 10 100 0 60 -4 100 -10 100 -7 0 -10
144 -10 411 0 457 -1 463 -65 493 -28 14 -89 16 -437 16 -355 0 -407 -2 -437
-17z m267 -133 c42 -26 72 -76 72 -120 0 -70 -69 -140 -138 -140 -80 0 -142
61 -142 140 0 108 117 176 208 120z m478 4 c98 -47 98 -201 0 -248 -120 -57
-251 68 -192 182 16 30 53 66 76 75 30 11 83 7 116 -9z m-470 -353 c34 -21 64
-75 64 -115 0 -95 -94 -166 -183 -137 -111 37 -132 192 -34 251 41 26 112 26
153 1z m481 -1 c98 -59 77 -214 -34 -251 -117 -38 -220 84 -166 198 33 69 131
96 200 53z m-291 -751 c3 -6 -1 -18 -10 -27 -15 -15 -17 -15 -32 0 -19 19 -11
38 16 38 10 0 22 -5 26 -11z m33 -253 c52 -27 69 -120 31 -169 -42 -53 -138
-53 -180 0 -23 30 -26 95 -6 132 27 48 99 65 155 37z"/>
<path d="M752 1780 c0 -19 2 -27 5 -17 2 9 2 25 0 35 -3 9 -5 1 -5 -18z"/>
<path d="M1242 1780 c0 -19 2 -27 5 -17 2 9 2 25 0 35 -3 9 -5 1 -5 -18z"/>
<path d="M753 1435 c0 -22 2 -30 4 -17 2 12 2 30 0 40 -3 9 -5 -1 -4 -23z"/>
<path d="M1243 1435 c0 -22 2 -30 4 -17 2 12 2 30 0 40 -3 9 -5 -1 -4 -23z"/>
</g>
</svg>
