<?xml version="1.0" standalone="no"?>
<!DOCTYPE svg PUBLIC "-//W3C//DTD SVG 20010904//EN"
 "http://www.w3.org/TR/2001/REC-SVG-20010904/DTD/svg10.dtd">
<svg version="1.0" xmlns="http://www.w3.org/2000/svg"
 width="398.000000pt" height="398.000000pt" viewBox="0 0 398.000000 398.000000"
 preserveAspectRatio="xMidYMid meet">
<metadata>
Created by potrace 1.14, written by Peter Selinger 2001-2017
</metadata>
<g transform="translate(0.000000,398.000000) scale(0.100000,-0.100000)"
fill="#000000" stroke="none">
<path d="M80 1988 l0 -1938 1910 0 1910 0 0 1938 0 1939 -1910 0 -1910 0 0
-1939z m3560 1 l0 -1677 -1650 0 -1650 0 0 1677 0 1677 1650 0 1650 0 0 -1677z"/>
<path d="M980 3317 c-3 -3 -21 -7 -40 -10 -63 -9 -147 -66 -207 -141 -15 -17
-54 -113 -51 -124 0 -4 -2 -15 -7 -25 -19 -44 12 -165 61 -239 37 -55 45 -62
105 -102 183 -120 450 -19 515 195 14 44 8 229 -8 229 -3 0 -10 12 -16 28 -23
64 -140 162 -214 178 -40 9 -133 16 -138 11z"/>
<path d="M1906 3309 c-99 -23 -193 -104 -236 -204 -22 -50 -30 -143 -18 -210
20 -115 138 -236 253 -260 106 -22 229 1 283 53 8 6 22 16 31 22 31 16 90 113
105 173 13 51 14 112 3 177 -15 80 -105 186 -192 226 -60 28 -163 38 -229 23z"/>
<path d="M2870 3308 c-25 -5 -72 -28 -105 -50 -122 -81 -183 -239 -143 -373 6
-22 12 -43 12 -46 1 -4 15 -29 33 -55 86 -134 251 -192 403 -141 40 13 111 58
141 90 32 34 79 119 79 145 0 12 3 22 8 22 9 0 8 104 -2 150 -20 94 -96 189
-189 234 -61 30 -167 41 -237 24z"/>
<path d="M899 2307 c-113 -47 -161 -100 -212 -228 -15 -36 -20 -145 -9 -164 4
-5 7 -17 9 -25 7 -46 42 -102 100 -157 36 -35 69 -61 73 -58 5 3 11 1 15 -5 7
-12 74 -30 126 -34 35 -3 98 6 134 18 102 33 188 125 221 236 15 51 15 153 1
193 -4 9 -10 25 -14 35 -3 9 -6 20 -5 23 1 4 -8 15 -18 24 -11 10 -20 22 -20
28 0 16 -73 75 -129 103 -77 40 -193 44 -272 11z"/>
<path d="M1904 2321 c-101 -26 -179 -92 -227 -191 -27 -56 -31 -76 -31 -145 0
-81 25 -175 47 -175 6 0 8 -3 4 -6 -5 -6 27 -47 68 -86 34 -33 138 -77 190
-82 101 -9 202 26 272 94 38 37 90 121 96 156 1 10 5 24 9 29 5 9 2 117 -5
160 -6 38 -55 120 -94 156 -62 60 -135 91 -222 95 -42 2 -90 0 -107 -5z"/>
<path d="M2841 2311 c-56 -21 -104 -54 -147 -99 -30 -32 -77 -129 -69 -142 3
-5 1 -11 -4 -15 -6 -3 -9 -40 -8 -83 2 -61 8 -89 31 -135 52 -105 143 -176
249 -196 78 -14 198 6 245 42 63 48 121 119 142 173 26 68 32 173 13 220 -7
17 -9 34 -6 38 4 3 2 6 -4 6 -6 0 -13 10 -17 23 -10 41 -84 114 -148 147 -82
43 -194 51 -277 21z"/>
<path d="M952 1349 c-134 -26 -243 -140 -273 -287 -11 -55 -11 -71 4 -130 10
-37 27 -79 38 -94 10 -15 19 -30 19 -33 0 -4 14 -21 32 -38 148 -148 390 -137
519 25 61 76 79 134 75 236 -9 209 -205 361 -414 321z"/>
<path d="M1940 1352 c-86 -12 -182 -69 -226 -135 -16 -23 -33 -45 -39 -49 -5
-4 -6 -8 -1 -8 5 0 3 -6 -3 -13 -6 -8 -8 -17 -4 -20 3 -4 2 -7 -3 -7 -10 0
-12 -8 -18 -98 -10 -140 74 -273 211 -334 49 -22 154 -30 219 -17 89 19 184
99 229 195 23 49 28 73 29 139 0 44 -4 89 -8 100 -5 11 -10 25 -12 32 -1 7
-12 26 -23 42 -12 16 -21 32 -21 35 0 12 -44 53 -90 84 -67 44 -161 66 -240
54z"/>
<path d="M2893 1350 c-191 -39 -313 -222 -274 -412 6 -35 21 -75 32 -90 10
-15 19 -31 19 -36 0 -10 65 -72 105 -99 75 -51 249 -66 318 -27 117 67 172
133 198 236 26 102 13 182 -41 272 -72 116 -224 182 -357 156z"/>
</g>
</svg>
