<?xml version="1.0" standalone="no"?>
<!DOCTYPE svg PUBLIC "-//W3C//DTD SVG 20010904//EN"
 "http://www.w3.org/TR/2001/REC-SVG-20010904/DTD/svg10.dtd">
<svg version="1.0" xmlns="http://www.w3.org/2000/svg"
 width="512.000000pt" height="512.000000pt" viewBox="0 0 512.000000 512.000000"
 preserveAspectRatio="xMidYMid meet">

<g transform="translate(0.000000,512.000000) scale(0.100000,-0.100000)"
fill="#000000" stroke="none">
<path d="M3695 5101 c-50 -22 -91 -69 -105 -119 -5 -21 -10 -143 -10 -276 l0
-240 70 -127 70 -127 0 -566 c0 -531 -1 -567 -17 -573 -122 -41 -208 -89 -304
-166 l-59 -48 0 121 0 120 54 0 c47 0 57 4 75 26 12 15 21 33 21 40 0 27 -24
63 -49 73 -18 8 -316 11 -994 9 l-969 -3 -19 -24 c-46 -57 -7 -121 74 -121
l47 0 0 -284 0 -284 -92 -94 c-111 -112 -191 -222 -258 -352 -242 -476 -198
-1045 115 -1480 l56 -78 -121 -206 c-68 -117 -120 -218 -120 -232 0 -43 26
-70 69 -70 23 0 44 7 54 18 8 9 61 96 117 192 56 96 104 177 105 179 2 2 35
-23 72 -55 259 -220 575 -335 921 -335 178 0 349 28 473 78 62 25 79 81 36
121 -29 27 -51 27 -136 3 -181 -54 -416 -68 -596 -36 -387 68 -734 326 -910
675 -97 194 -137 360 -138 580 -1 352 121 642 377 895 159 158 307 251 500
315 149 49 258 63 436 57 158 -6 244 -21 381 -68 52 -18 194 -82 207 -94 2 -2
-9 -51 -23 -110 -25 -99 -27 -118 -21 -244 3 -75 8 -166 12 -203 5 -57 3 -74
-15 -110 -44 -88 -38 -88 -132 6 -68 67 -100 91 -169 124 -112 53 -175 67
-295 66 -223 -2 -417 -116 -538 -316 -50 -84 -77 -174 -84 -284 -23 -375 294
-694 667 -671 94 6 199 35 273 75 26 14 49 23 50 21 2 -2 11 -33 21 -69 63
-233 246 -488 454 -629 218 -147 498 -220 755 -194 656 67 1121 664 1022 1313
-26 174 -84 321 -189 479 -31 46 -59 95 -63 108 -3 14 -3 57 1 96 16 177 18
281 6 353 -50 312 -265 583 -553 695 l-72 28 -3 569 -2 569 67 119 68 119 0
255 c0 140 -3 267 -7 282 -12 40 -57 89 -103 109 -35 16 -69 19 -280 19 -211
0 -245 -3 -280 -19z m515 -150 c6 -12 10 -105 10 -232 l0 -212 -57 -103 -58
-104 -131 0 -132 0 -56 102 -56 101 0 222 c0 158 3 224 12 233 9 9 75 12 235
12 210 0 223 -1 233 -19z m-130 -941 l0 -140 -105 0 -105 0 0 140 0 140 105 0
105 0 0 -140z m-2 -407 l3 -113 -106 0 -105 0 0 115 0 116 103 -3 102 -3 3
-112z m0 -380 l3 -113 -106 0 -105 0 0 115 0 116 103 -3 102 -3 3 -112z
m-1988 -271 l0 -148 -57 -18 c-32 -10 -113 -46 -180 -81 l-123 -62 0 228 0
229 180 0 180 0 0 -148z m580 26 l0 -123 -162 0 c-90 0 -187 -4 -215 -8 l-53
-8 0 131 0 130 215 0 215 0 0 -122z m520 -84 c0 -161 -3 -205 -12 -201 -7 3
-53 24 -103 46 -49 22 -127 50 -172 63 l-83 23 0 138 0 137 185 0 185 0 0
-206z m888 -51 l3 -113 -106 0 -105 0 0 108 c0 60 3 112 7 116 4 4 50 5 103 4
l95 -3 3 -112z m-358 -412 l0 -490 -53 -53 c-31 -31 -67 -82 -88 -123 -33 -67
-34 -74 -34 -185 0 -109 2 -119 32 -183 37 -78 115 -164 177 -198 37 -19 48
-21 70 -11 36 16 58 54 50 86 -3 15 -26 40 -54 60 -91 65 -129 137 -130 244
-1 137 82 243 218 277 96 25 189 -1 265 -74 64 -60 82 -103 82 -201 0 -77 -3
-90 -31 -140 -20 -35 -53 -72 -90 -101 -50 -38 -59 -51 -62 -81 -2 -29 2 -40
24 -57 38 -30 63 -26 124 16 118 83 180 196 187 343 8 132 -33 235 -131 331
l-46 46 2 492 3 492 80 -40 c176 -89 308 -245 371 -438 26 -78 29 -102 28
-208 0 -66 -4 -166 -8 -222 -11 -130 -1 -169 74 -282 101 -152 148 -265 175
-420 52 -293 -42 -611 -245 -833 -199 -219 -492 -341 -780 -325 -518 29 -920
428 -947 938 -12 233 43 432 174 625 80 118 88 139 87 244 -1 52 -5 150 -9
217 -9 151 7 238 70 368 72 149 177 257 325 335 41 22 78 40 83 40 4 0 7 -220
7 -489z m355 29 l0 -115 -100 0 -100 0 -3 104 c-1 58 0 111 2 118 4 11 28 13
103 11 l98 -3 0 -115z m5 -359 l0 -88 -105 0 -105 0 0 88 0 89 105 0 105 0 0
-89z m-1422 -203 c108 -40 195 -109 254 -201 l30 -47 -20 -48 c-57 -137 -92
-301 -92 -437 0 -81 -1 -84 -31 -110 -72 -60 -199 -105 -296 -105 -317 0 -556
303 -478 605 73 280 371 441 633 343z"/>
<path d="M3625 793 c-36 -9 -55 -34 -55 -73 0 -71 -8 -70 398 -70 349 0 363 1
382 20 38 38 22 100 -31 119 -32 11 -651 14 -694 4z"/>
<path d="M134 4371 c-78 -35 -134 -127 -134 -217 0 -46 37 -130 71 -161 39
-36 98 -56 401 -139 l287 -79 3 -223 c3 -221 3 -224 27 -243 28 -23 69 -24 99
-3 22 15 22 20 22 220 0 112 2 204 5 204 3 0 127 -34 275 -75 187 -52 287 -75
325 -75 167 0 273 171 201 325 -27 59 -68 97 -128 119 -24 8 -329 94 -678 191
-437 120 -651 175 -685 175 -28 0 -68 -9 -91 -19z m755 -307 c350 -97 648
-182 662 -190 68 -35 41 -144 -37 -144 -27 0 -461 117 -1224 330 -114 32 -140
51 -140 102 0 37 40 78 76 78 15 0 314 -79 663 -176z"/>
<path d="M815 3080 c-53 -21 -50 74 -50 -1527 l0 -1485 28 -24 c34 -29 56 -30
91 -3 l26 20 0 1493 c0 1409 -1 1494 -17 1508 -24 21 -54 28 -78 18z"/>
</g>
</svg>
